<mxfile host="app.diagrams.net" modified="2024-10-23T02:57:36.611Z" agent="Mozilla/5.0 (Windows NT 10.0; Win64; x64) AppleWebKit/537.36 (KHTML, like Gecko) Chrome/124.0.0.0 Safari/537.36" version="24.4.9" etag="4QIYsXw3b55zmJQAsDwC" type="github">
  <diagram name="Side-1" id="Cl195wROmOC1sSwurXu9">
    <mxGraphModel>
      <root>
        <mxCell id="0" />
        <mxCell id="1" parent="0" />
      </root>
    </mxGraphModel>
  </diagram>
</mxfile>
